<?xml version="1.0" encoding="UTF-8" standalone="no"?>


<svg
  viewBox="0 0 129.01 42.59"
  version="1.1"
  xmlns="http://www.w3.org/2000/svg"
  xmlns:svg="http://www.w3.org/2000/svg"
  xmlns:rdf="http://www.w3.org/1999/02/22-rdf-syntax-ns#"
  xmlns:cc="http://creativecommons.org/ns#"
  xmlns:dc="http://purl.org/dc/elements/1.1/"
>
  <defs>
    <style>
      .cls-1 {fill: currentcolor;}
    </style>
  </defs>
  <path
    class="cls-1"
    d="m 42.14,10.73 c -2.41,-0.44 -4.07,0.04 -5.75,1.13 -0.7,0.45 -1.59,1.07 -2.28,1.81 v -2.89 h -6.56 c 0,0.3 0,0.42 0.3,0.42 h 0.3 c 0.65,0 1.21,0.21 1.66,0.64 0.45,0.43 0.69,0.96 0.72,1.62 v 23.23 c -0.03,0.65 -0.27,1.19 -0.72,1.62 -0.45,0.42 -1.01,0.64 -1.66,0.64 h -0.3 c -0.3,0 -0.3,0.12 -0.3,0.42 h 9.54 c 0,-0.3 0,-0.42 -0.3,-0.42 h -0.3 c -0.65,0 -1.21,-0.21 -1.66,-0.64 -0.45,-0.43 -0.69,-0.96 -0.72,-1.62 V 15.03 c 1.21,-1.37 2.76,-2.05 4.1,-2.22 2.12,-0.26 3.63,0.33 5,1.98 1.5,1.8 2.49,5.29 1.39,8.78 -1.41,4.49 -3.58,6.43 -7.55,6.8 0.02,0.13 0.06,0.25 0.24,0.27 2.85,0.39 7.17,-1.23 9.11,-3.94 4.25,-5.97 2.09,-14.79 -4.26,-15.96 z"
  />
  <path
    class="cls-1"
    d="m 23.92,23.13 c -0.43,1.67 -1.18,3.05 -2.28,4.15 -1.1,1.1 -2.47,1.64 -4.15,1.64 H 5.58 L 22.79,0.55 H 0.89 L 0.84,1.87 v 0 L 0.68,5.82 C 0.9,5.82 1.03,5.79 1.05,5.55 L 1.09,5.14 C 1.17,4.15 1.38,3.49 1.96,2.91 2.54,2.33 3.29,2.02 4.19,2 H 17.34 L 0,30.36 h 22.9 l 1.53,-7.67 c -0.32,0 -0.44,0.15 -0.51,0.45 z"
  />
  <path
    class="cls-1"
    d="M 74.94,2.42 C 72.61,1.2 69.88,0.59 66.73,0.59 H 51.98 c 0,0.3 0.09,0.42 0.36,0.42 h 0.19 c 0.74,0 1.37,0.26 1.89,0.79 0.52,0.52 0.8,1.15 0.83,1.89 v 23.57 c -0.03,0.74 -0.31,1.37 -0.83,1.89 -0.53,0.53 -1.16,0.79 -1.89,0.79 h -0.19 c -0.28,0 -0.36,0.12 -0.36,0.42 h 14.75 c 3.15,0 5.88,-0.62 8.21,-1.85 2.32,-1.23 4.14,-2.96 5.44,-5.19 1.3,-2.22 1.96,-4.84 1.96,-7.84 0,-3 -0.65,-5.63 -1.96,-7.87 C 79.07,5.37 77.26,3.64 74.94,2.42 Z m 1.57,20.15 c -0.94,2.01 -2.25,3.57 -3.95,4.68 -1.7,1.11 -3.7,1.66 -6,1.66 H 59.2 V 2.04 h 7.36 c 2.3,0 4.29,0.55 6,1.66 1.7,1.11 3.02,2.67 3.95,4.68 0.93,2.01 1.4,4.38 1.4,7.1 0,2.72 -0.47,5.09 -1.4,7.1 z"
  />
  <path
    class="cls-1"
    d="m 111.63,3.17 c 1.76,-1.15 3.85,-1.72 6.29,-1.72 2.44,0 4.63,0.63 6.48,1.89 1.86,1.26 3.55,3.25 4.23,5.86 0.04,0.15 0.11,0.23 0.38,0.23 V 3.82 c -1.55,-1.33 -3.7,-2.51 -5.43,-3.04 -1.73,-0.52 -3.67,-0.79 -5.83,-0.79 -3.29,0 -6.13,0.64 -8.53,1.91 -2.4,1.28 -4.25,3.07 -5.57,5.38 -1.31,2.29 -1.96,4.98 -1.97,8.06 v 0 c 0,0 0,0.03 0,0.04 0,0.01 0,0.03 0,0.04 v 0 c 0.01,3.08 0.67,5.77 1.97,8.06 1.32,2.31 3.17,4.1 5.57,5.38 2.4,1.28 5.24,1.91 8.53,1.91 2.15,0 4.1,-0.26 5.83,-0.79 1.73,-0.52 3.88,-1.71 5.43,-3.04 v -5.6 c -0.27,0 -0.34,0.07 -0.38,0.23 -0.68,2.61 -2.37,4.6 -4.23,5.86 -1.86,1.26 -4.02,1.89 -6.48,1.89 -2.46,0 -4.54,-0.57 -6.29,-1.72 -1.75,-1.15 -3.12,-2.76 -4.08,-4.85 -0.96,-2.08 -1.45,-4.54 -1.45,-7.38 0,-2.84 0.48,-5.29 1.45,-7.38 0.96,-2.08 2.32,-3.7 4.08,-4.85 z"
  />
  <path
    class="cls-1"
    d="m 94.65,1.81 c 0.53,-0.52 1.16,-0.79 1.89,-0.79 h 0.19 c 0.28,0 0.37,-0.13 0.37,-0.42 H 86.6 c 0,0.29 0.09,0.42 0.37,0.42 h 0.19 c 0.74,0 1.37,0.26 1.89,0.79 0.52,0.52 0.8,1.16 0.83,1.89 v 23.56 c -0.03,0.74 -0.31,1.37 -0.83,1.89 -0.53,0.52 -1.16,0.79 -1.89,0.79 h -0.19 c -0.28,0 -0.37,0.13 -0.37,0.42 h 10.5 c 0,-0.29 -0.09,-0.42 -0.37,-0.42 h -0.19 c -0.74,0 -1.37,-0.26 -1.89,-0.79 C 94.13,28.63 93.85,28 93.82,27.27 V 3.69 c 0.03,-0.73 0.31,-1.36 0.83,-1.88 z"
  />
  <path
    class="cls-1"
    d="m 82.42,39.23 c 0,1.76 -1.32,3.12 -3.12,3.12 -1.8,0 -3.12,-1.35 -3.12,-3.12 0,-1.77 1.32,-3.12 3.12,-3.12 1.8,0 3.12,1.35 3.12,3.12 z m -0.92,0 c 0,-1.33 -0.92,-2.27 -2.21,-2.27 -1.29,0 -2.21,0.94 -2.21,2.27 0,1.33 0.92,2.27 2.21,2.27 1.29,0 2.21,-0.94 2.21,-2.27 z"
  />
  <path
    class="cls-1"
    d="m 87.35,42.22 v -6.41 l 4.36,4.56 v -4.16 h 0.92 v 6.37 l -4.36,-4.56 v 4.2 z"
  />
  <path
    class="cls-1"
    d="m 99.77,36.22 v 5.14 h 1.76 v 0.86 h -2.68 v -6 z"
  />
  <path
    class="cls-1"
    d="m 108.22,36.22 v 6 h -0.92 v -6 z"
  />
  <path
    class="cls-1"
    d="m 114.49,42.22 v -6.41 l 4.36,4.56 v -4.16 h 0.92 v 6.37 l -4.36,-4.56 v 4.2 z"
  />
  <path
    class="cls-1"
    d="m 128.73,37.08 h -2.39 v 1.52 h 2.32 v 0.86 h -2.32 v 1.89 h 2.39 v 0.86 h -3.31 v -6 h 3.31 v 0.86 z"
  />
</svg>
