<?xml version="1.0" encoding="UTF-8" standalone="no"?>
<svg
   xmlns:dc="http://purl.org/dc/elements/1.1/"
   xmlns:cc="http://creativecommons.org/ns#"
   xmlns:rdf="http://www.w3.org/1999/02/22-rdf-syntax-ns#"
   xmlns:svg="http://www.w3.org/2000/svg"
   xmlns="http://www.w3.org/2000/svg"
   xmlns:sodipodi="http://sodipodi.sourceforge.net/DTD/sodipodi-0.dtd"
   xmlns:inkscape="http://www.inkscape.org/namespaces/inkscape"
   id="_編集モード"
   viewBox="0 0 129.01 42.59"
   version="1.1"
   sodipodi:docname="logo.svg"
   inkscape:version="1.0.2-2 (e86c870879, 2021-01-15)">
  <metadata
     id="metadata33">
    <rdf:RDF>
      <cc:Work
         rdf:about="">
        <dc:format>image/svg+xml</dc:format>
        <dc:type
           rdf:resource="http://purl.org/dc/dcmitype/StillImage" />
        <dc:title></dc:title>
      </cc:Work>
    </rdf:RDF>
  </metadata>
  <sodipodi:namedview
     pagecolor="#ffffff"
     bordercolor="#666666"
     borderopacity="1"
     objecttolerance="10"
     gridtolerance="10"
     guidetolerance="10"
     inkscape:pageopacity="0"
     inkscape:pageshadow="2"
     inkscape:window-width="3840"
     inkscape:window-height="2080"
     id="namedview31"
     showgrid="false"
     inkscape:zoom="13.500822"
     inkscape:cx="64.504997"
     inkscape:cy="21.295"
     inkscape:window-x="2869"
     inkscape:window-y="-11"
     inkscape:window-maximized="1"
     inkscape:current-layer="_編集モード" />
  <defs
     id="defs4">
    <style
       id="style2">.cls-1{fill:#6b4d2e;}</style>
  </defs>
  <g
     id="g16"
     style="fill:#000000;fill-opacity:1">
    <path
       class="cls-1"
       d="M42.14,10.73c-2.41-.44-4.07,.04-5.75,1.13-.7,.45-1.59,1.07-2.28,1.81v-2.89h-6.56c0,.3,0,.42,.3,.42h.3c.65,0,1.21,.21,1.66,.64,.45,.43,.69,.96,.72,1.62v23.23c-.03,.65-.27,1.19-.72,1.62-.45,.42-1.01,.64-1.66,.64h-.3c-.3,0-.3,.12-.3,.42h9.54c0-.3,0-.42-.3-.42h-.3c-.65,0-1.21-.21-1.66-.64-.45-.43-.69-.96-.72-1.62V15.03c1.21-1.37,2.76-2.05,4.1-2.22,2.12-.26,3.63,.33,5,1.98,1.5,1.8,2.49,5.29,1.39,8.78-1.41,4.49-3.58,6.43-7.55,6.8,.02,.13,.06,.25,.24,.27,2.85,.39,7.17-1.23,9.11-3.94,4.25-5.97,2.09-14.79-4.26-15.96Z"
       id="path6"
       style="fill:#000000;fill-opacity:1" />
    <path
       class="cls-1"
       d="M23.92,23.13c-.43,1.67-1.18,3.05-2.28,4.15s-2.47,1.64-4.15,1.64H5.58L22.79,.55H.89l-.05,1.32h0l-.16,3.95c.22,0,.35-.03,.37-.27l.04-.41c.08-.99,.29-1.65,.87-2.23s1.33-.89,2.23-.91h13.15L0,30.36H22.9l1.53-7.67c-.32,0-.44,.15-.51,.45Z"
       id="path8"
       style="fill:#000000;fill-opacity:1" />
    <path
       class="cls-1"
       d="M74.94,2.42c-2.33-1.22-5.06-1.83-8.21-1.83h-14.75c0,.3,.09,.42,.36,.42h.19c.74,0,1.37,.26,1.89,.79,.52,.52,.8,1.15,.83,1.89V27.26c-.03,.74-.31,1.37-.83,1.89-.53,.53-1.16,.79-1.89,.79h-.19c-.28,0-.36,.12-.36,.42h14.75c3.15,0,5.88-.62,8.21-1.85,2.32-1.23,4.14-2.96,5.44-5.19,1.3-2.22,1.96-4.84,1.96-7.84s-.65-5.63-1.96-7.87-3.12-3.97-5.44-5.19Zm1.57,20.15c-.94,2.01-2.25,3.57-3.95,4.68-1.7,1.11-3.7,1.66-6,1.66h-7.36V2.04h7.36c2.3,0,4.29,.55,6,1.66,1.7,1.11,3.02,2.67,3.95,4.68s1.4,4.38,1.4,7.1-.47,5.09-1.4,7.1Z"
       id="path10"
       style="fill:#000000;fill-opacity:1" />
    <path
       class="cls-1"
       d="M111.63,3.17c1.76-1.15,3.85-1.72,6.29-1.72s4.63,.63,6.48,1.89c1.86,1.26,3.55,3.25,4.23,5.86,.04,.15,.11,.23,.38,.23V3.82c-1.55-1.33-3.7-2.51-5.43-3.04-1.73-.52-3.67-.79-5.83-.79-3.29,0-6.13,.64-8.53,1.91-2.4,1.28-4.25,3.07-5.57,5.38-1.31,2.29-1.96,4.98-1.97,8.06h0s0,.03,0,.04,0,.03,0,.04h0c.01,3.08,.67,5.77,1.97,8.06,1.32,2.31,3.17,4.1,5.57,5.38,2.4,1.28,5.24,1.91,8.53,1.91,2.15,0,4.1-.26,5.83-.79,1.73-.52,3.88-1.71,5.43-3.04v-5.6c-.27,0-.34,.07-.38,.23-.68,2.61-2.37,4.6-4.23,5.86-1.86,1.26-4.02,1.89-6.48,1.89s-4.54-.57-6.29-1.72-3.12-2.76-4.08-4.85c-.96-2.08-1.45-4.54-1.45-7.38s.48-5.29,1.45-7.38c.96-2.08,2.32-3.7,4.08-4.85Z"
       id="path12"
       style="fill:#000000;fill-opacity:1" />
    <path
       class="cls-1"
       d="M94.65,1.81c.53-.52,1.16-.79,1.89-.79h.19c.28,0,.37-.13,.37-.42h-10.5c0,.29,.09,.42,.37,.42h.19c.74,0,1.37,.26,1.89,.79,.52,.52,.8,1.16,.83,1.89V27.26c-.03,.74-.31,1.37-.83,1.89-.53,.52-1.16,.79-1.89,.79h-.19c-.28,0-.37,.13-.37,.42h10.5c0-.29-.09-.42-.37-.42h-.19c-.74,0-1.37-.26-1.89-.79-.52-.52-.8-1.15-.83-1.88V3.69c.03-.73,.31-1.36,.83-1.88Z"
       id="path14"
       style="fill:#000000;fill-opacity:1" />
  </g>
  <path
     class="cls-1"
     d="M82.42,39.23c0,1.76-1.32,3.12-3.12,3.12s-3.12-1.35-3.12-3.12,1.32-3.12,3.12-3.12,3.12,1.35,3.12,3.12Zm-.92,0c0-1.33-.92-2.27-2.21-2.27s-2.21,.94-2.21,2.27,.92,2.27,2.21,2.27,2.21-.94,2.21-2.27Z"
     id="path18"
     style="fill:#000000;fill-opacity:1" />
  <path
     class="cls-1"
     d="M87.35,42.22v-6.41l4.36,4.56v-4.16h.92v6.37l-4.36-4.56v4.2h-.92Z"
     id="path20"
     style="fill:#000000;fill-opacity:1" />
  <path
     class="cls-1"
     d="M99.77,36.22v5.14h1.76v.86h-2.68v-6h.92Z"
     id="path22"
     style="fill:#000000;fill-opacity:1" />
  <path
     class="cls-1"
     d="M108.22,36.22v6h-.92v-6h.92Z"
     id="path24"
     style="fill:#000000;fill-opacity:1" />
  <path
     class="cls-1"
     d="M114.49,42.22v-6.41l4.36,4.56v-4.16h.92v6.37l-4.36-4.56v4.2h-.92Z"
     id="path26"
     style="fill:#000000;fill-opacity:1" />
  <path
     class="cls-1"
     d="M128.73,37.08h-2.39v1.52h2.32v.86h-2.32v1.89h2.39v.86h-3.31v-6h3.31v.86Z"
     id="path28"
     style="fill:#000000;fill-opacity:1" />
</svg>
