<?xml version="1.0" encoding="UTF-8" standalone="no"?>


<svg
  viewBox="0 0 92.83 120"
  version="1.1"
  xmlns="http://www.w3.org/2000/svg"
  xmlns:svg="http://www.w3.org/2000/svg"
  xmlns:rdf="http://www.w3.org/1999/02/22-rdf-syntax-ns#"
  xmlns:cc="http://creativecommons.org/ns#"
  xmlns:dc="http://purl.org/dc/elements/1.1/"
>
  <defs>
    <style>
      .cls-1 {fill: currentcolor;}
    </style>
  </defs>
  <path
    class="cls-1"
    d="M90,88.87c0,21.48-21.8,30-50,30-1.12,0-1.98,.52-1.98,1.13h53.4v-33.12c-.57,0-1.45,.75-1.42,1.98Z"
  />
  <path
    class="cls-1"
    d="M2.83,31.13C2.83,9.65,24.63,1.13,52.83,1.13,53.96,1.13,54.82,.61,54.82,0H1.42V33.12c.57,0,1.45-.75,1.42-1.98Z"
  />
  <path
    class="cls-1"
    d="M83.59,.5L43.58,60C16.21,100.71,7.77,112.86,5.09,115.31,2.84,117.36,.34,118.22,0,119.5H9.24L49.25,60C76.63,19.29,85.07,7.14,87.75,4.69c2.25-2.05,4.74-2.91,5.09-4.19h-9.24Z"
  />
</svg>
