<?xml version="1.0" encoding="UTF-8" standalone="no"?>
<svg
   xmlns:dc="http://purl.org/dc/elements/1.1/"
   xmlns:cc="http://creativecommons.org/ns#"
   xmlns:rdf="http://www.w3.org/1999/02/22-rdf-syntax-ns#"
   xmlns:svg="http://www.w3.org/2000/svg"
   xmlns="http://www.w3.org/2000/svg"
   xmlns:sodipodi="http://sodipodi.sourceforge.net/DTD/sodipodi-0.dtd"
   xmlns:inkscape="http://www.inkscape.org/namespaces/inkscape"
   id="_レイヤー_2"
   viewBox="0 0 92.83 120"
   version="1.1"
   sodipodi:docname="symbol.svg"
   inkscape:version="1.0.2-2 (e86c870879, 2021-01-15)">
  <metadata
     id="metadata15">
    <rdf:RDF>
      <cc:Work
         rdf:about="">
        <dc:format>image/svg+xml</dc:format>
        <dc:type
           rdf:resource="http://purl.org/dc/dcmitype/StillImage" />
        <dc:title></dc:title>
      </cc:Work>
    </rdf:RDF>
  </metadata>
  <sodipodi:namedview
     pagecolor="#ffffff"
     bordercolor="#666666"
     borderopacity="1"
     objecttolerance="10"
     gridtolerance="10"
     guidetolerance="10"
     inkscape:pageopacity="0"
     inkscape:pageshadow="2"
     inkscape:window-width="3840"
     inkscape:window-height="2080"
     id="namedview13"
     showgrid="false"
     inkscape:zoom="4.7916667"
     inkscape:cx="46.415001"
     inkscape:cy="60"
     inkscape:window-x="2869"
     inkscape:window-y="-11"
     inkscape:window-maximized="1"
     inkscape:current-layer="_レイヤー_2"
     inkscape:document-rotation="0" />
  <defs
     id="defs4">
    <style
       id="style2">.cls-1{fill:#6b4d2e;}</style>
  </defs>
  <path
     class="cls-1"
     d="M90,88.87c0,21.48-21.8,30-50,30-1.12,0-1.98,.52-1.98,1.13h53.4v-33.12c-.57,0-1.45,.75-1.42,1.98Z"
     id="path6"
     style="fill:#030000;fill-opacity:1" />
  <path
     class="cls-1"
     d="M2.83,31.13C2.83,9.65,24.63,1.13,52.83,1.13,53.96,1.13,54.82,.61,54.82,0H1.42V33.12c.57,0,1.45-.75,1.42-1.98Z"
     id="path8"
     style="fill:#030000;fill-opacity:1" />
  <path
     class="cls-1"
     d="M83.59,.5L43.58,60C16.21,100.71,7.77,112.86,5.09,115.31,2.84,117.36,.34,118.22,0,119.5H9.24L49.25,60C76.63,19.29,85.07,7.14,87.75,4.69c2.25-2.05,4.74-2.91,5.09-4.19h-9.24Z"
     id="path10"
     style="fill:#030000;fill-opacity:1" />
</svg>
